<svg width="191" height="127" viewBox="0 0 191 127" fill="none" xmlns="http://www.w3.org/2000/svg">
<g clip-path="url(#clip0)">
<path d="M46.5218 79.2971C48.2298 92.3625 52.4982 104.966 59.0842 116.39C66.3458 123.563 73.8659 127 82.4851 127C85.6323 126.974 88.765 126.57 91.8153 125.797C78.2737 115.391 67.885 101.453 61.7992 85.5258C56.2482 84.742 50.9778 82.6023 46.4571 79.2971" fill="#70B1E1"/>
<path d="M116.725 52.1274C115.841 52.1274 114.936 52.1274 114.031 52.1274C109.557 58.4478 104.508 64.3434 98.9476 69.7394C100.003 70.1905 101.102 70.706 102.029 71.2429L132.024 87.4159C138.04 90.4802 144.712 92.0439 151.467 91.9729C158.223 91.9018 164.86 90.1981 170.81 87.0078L191 76.2688L187.488 75.9466C180.55 75.3001 173.765 73.5224 167.405 70.6845L134.739 56.1438C129.117 53.4553 122.96 52.0607 116.725 52.063" fill="#FFDD47"/>
<path d="M87.7213 78.6956C81.2815 83.1034 73.7021 85.5645 65.8933 85.7833C64.546 85.7844 63.1999 85.6984 61.8638 85.5256C67.9496 101.453 78.3383 115.391 91.88 125.797C95.7518 124.795 99.5239 123.444 103.15 121.759L129.718 107.777C116.054 104.963 103.745 97.6285 94.7889 86.9646L87.7213 78.6956Z" fill="#B7D5F0"/>
<path d="M33.0975 32.2815C28.571 32.2895 24.103 33.302 20.0179 35.2455C20.5997 37.3933 21.2246 39.5411 21.9141 41.5815C27.5597 58.4633 36.0495 71.8442 46.5218 79.2971C44.6901 67.1997 44.6175 54.9023 46.3063 42.7843C46.6511 40.3931 47.0605 38.0519 47.5345 35.7609C43.0721 33.4554 38.1237 32.2407 33.0975 32.217" fill="#84BDE7"/>
<path d="M102.331 -3.61502e-05L82.1619 12.1781C78.5956 14.3401 75.7537 17.5091 73.9968 21.2832C72.2398 25.0573 71.6468 29.2665 72.293 33.3769C80.913 24.4073 91.9503 18.1121 104.076 15.2494L102.331 -0.0429688" fill="#E893AF"/>
<path d="M47.5345 35.8254C47.0605 38.1164 46.6511 40.4576 46.3063 42.8488C44.6175 54.9668 44.6901 67.2642 46.5218 79.3616C51.0424 82.6668 56.3128 84.8065 61.8638 85.5902C61.0309 83.3583 60.3117 81.0859 59.709 78.7816C57.2347 68.819 58.1129 58.3221 62.2086 48.9057L59.0842 45.3188C55.9044 41.4416 51.9678 38.2484 47.513 35.9329" fill="#95CCEF"/>
<path d="M104.076 15.2495C91.9503 18.1122 80.913 24.4073 72.293 33.377L76.3224 59.4514L95.3276 48.0465C98.7875 45.9762 101.578 42.9583 103.365 39.3523C105.153 35.7462 105.864 31.7039 105.412 27.7068L103.99 15.2924" fill="#EEACC9"/>
<path d="M114.031 52.2134C108.245 52.5863 102.602 54.1592 97.4608 56.8312L79.1021 66.4319C80.1148 66.4319 81.106 66.3245 82.1188 66.3245C87.8902 66.3181 93.5996 67.5105 98.883 69.8254C104.443 64.4294 109.493 58.5337 113.966 52.2134" fill="#FFF495"/>
<path d="M62.1871 48.8413C58.0914 58.2578 57.2132 68.7547 59.6875 78.7173C60.2902 81.0215 61.0094 83.294 61.8423 85.5259C63.1784 85.6987 64.5244 85.7847 65.8717 85.7836C73.6805 85.5648 81.2599 83.1037 87.6997 78.6959L62.1655 48.8413" fill="#D0EBFA"/>
<path d="M46.5218 79.297C36.0495 71.8441 27.5597 58.4632 21.9141 41.5814C21.2246 39.541 20.5997 37.4361 20.0179 35.2454L18.7251 35.8897L0 45.8985L4.30957 47.7886C11.8088 51.2791 18.1276 56.8686 22.4959 63.8757L51.7794 107.755C54.0074 110.806 56.4714 113.679 59.1488 116.347C52.5461 104.94 48.2558 92.352 46.5218 79.297Z" fill="#649DD4"/>
</g>
<defs>
<clipPath id="clip0">
<rect width="191" height="127" fill="white"/>
</clipPath>
</defs>
</svg>
